<?xml version="1.0" encoding="UTF-8" standalone="no"?>
<!-- Created with Inkscape (http://www.inkscape.org/) -->

<svg
   xmlns:dc="http://purl.org/dc/elements/1.1/"
   xmlns:cc="http://creativecommons.org/ns#"
   xmlns:rdf="http://www.w3.org/1999/02/22-rdf-syntax-ns#"
   xmlns:svg="http://www.w3.org/2000/svg"
   xmlns="http://www.w3.org/2000/svg"
   xmlns:sodipodi="http://sodipodi.sourceforge.net/DTD/sodipodi-0.dtd"
   xmlns:inkscape="http://www.inkscape.org/namespaces/inkscape"
   width="153mm"
   height="153mm"
   viewBox="0 0 153 153"
   version="1.1"
   id="svg3798"
   inkscape:version="0.92.3 (2405546, 2018-03-11)"
   sodipodi:docname="drawing.svg">
  <defs
     id="defs3792" />
  <sodipodi:namedview
     id="base"
     pagecolor="#ffffff"
     bordercolor="#666666"
     borderopacity="1.0"
     inkscape:pageopacity="0.0"
     inkscape:pageshadow="2"
     inkscape:zoom="0.35"
     inkscape:cx="400"
     inkscape:cy="560"
     inkscape:document-units="mm"
     inkscape:current-layer="layer1"
     showgrid="false"
     inkscape:window-width="1366"
     inkscape:window-height="703"
     inkscape:window-x="0"
     inkscape:window-y="0"
     inkscape:window-maximized="1"
     width="137mm" />
  <metadata
     id="metadata3795">
    <rdf:RDF>
      <cc:Work
         rdf:about="">
        <dc:format>image/svg+xml</dc:format>
        <dc:type
           rdf:resource="http://purl.org/dc/dcmitype/StillImage" />
        <dc:title></dc:title>
      </cc:Work>
    </rdf:RDF>
  </metadata>
  <g
     inkscape:label="Layer 1"
     inkscape:groupmode="layer"
     id="layer1"
     transform="translate(0,-144)">
    <path
       style="fill:#000000;stroke-width:0.1579112"
       d="m 119.90451,282.95354 c -0.21071,-0.13118 -0.68473,-0.23958 -1.05337,-0.2409 -0.42993,-0.001 -1.08934,-0.20239 -1.83885,-0.56008 -0.67575,-0.32249 -1.62508,-0.62392 -2.2511,-0.71476 -1.33338,-0.19348 -2.46397,-0.66931 -6.59342,-2.77497 -1.77765,-0.90645 -3.33573,-1.6481 -3.46238,-1.6481 -0.12664,0 -0.35452,-0.14581 -0.50638,-0.32402 -0.15186,-0.1782 -0.83099,-0.66946 -1.50917,-1.09167 -0.67818,-0.42222 -1.63925,-1.11386 -2.13572,-1.53698 -1.237655,-1.05482 -6.197208,-6.26934 -7.695838,-8.09149 -0.67424,-0.81979 -1.6896,-2.04105 -2.25634,-2.7139 -0.97818,-1.16133 -2.26414,-3.24111 -2.26414,-3.66179 0,-0.10735 -0.26989,-0.62438 -0.59975,-1.14896 -0.32987,-0.52458 -0.67465,-1.32462 -0.76618,-1.77786 -0.0929,-0.46015 -0.16643,-2.50793 -0.16643,-4.6369 v -3.8128 l 0.61049,-0.33075 c 1.02388,-0.5547 0.98803,-1.48926 -0.0777,-2.02632 -0.48287,-0.24333 -0.54469,-0.34088 -0.50332,-0.79417 0.0604,-0.66193 0.5297,-0.76056 1.27897,-0.2688 0.48004,0.31506 0.62993,0.33572 1.40574,0.19378 0.7222,-0.13214 1.00946,-0.10736 1.70613,0.14718 0.46075,0.16834 0.99403,0.30607 1.18507,0.30607 0.60769,0 1.26587,0.75455 1.5382,1.76342 0.29275,1.08448 0.39978,1.24492 1.17897,1.76728 0.32373,0.21702 0.6813,0.63018 0.7946,0.91814 0.1133,0.28796 0.60796,0.93287 1.09925,1.43314 0.49129,0.50027 1.501303,1.61483 2.244463,2.47681 1.602535,1.85873 3.429665,3.41447 5.275335,4.49175 0.73796,0.43074 1.63599,0.95592 1.99562,1.16706 0.6581,0.38638 0.79679,0.3546 0.99119,-0.22717 0.0499,-0.14941 1.81231,0.35864 3.82581,1.10289 2.35549,0.87065 3.61468,1.10302 6.02186,1.11128 2.16858,0.007 5.60865,-0.3656 7.42589,-0.80524 0.61163,-0.14798 1.70727,-0.6538 2.86688,-1.32357 1.50935,-0.87178 2.09568,-1.32065 2.99416,-2.29221 0.61451,-0.66448 1.39311,-1.33779 1.73024,-1.49625 0.95418,-0.44848 1.85592,-1.38008 2.81482,-2.90799 1.32198,-2.10644 1.8967,-3.86523 2.19551,-6.7189 l 0.18254,-1.74343 -0.5907,-2.00284 c -0.61343,-2.07998 -1.98991,-5.34587 -3.14172,-7.45426 -0.36671,-0.67126 -1.81928,-2.86809 -3.22796,-4.88186 -1.40866,-2.01377 -3.03534,-4.44957 -3.61482,-5.41289 -2.44548,-4.06531 -2.63013,-4.42019 -2.81411,-5.40857 -0.1,-0.537 -0.35226,-1.24298 -0.56067,-1.56883 l -0.37894,-0.59245 0.3785,-0.95316 c 0.35564,-0.89558 0.36456,-0.98758 0.14758,-1.52302 -0.52218,-1.2885 -0.53983,-1.41486 -0.27387,-1.96102 0.15078,-0.30964 0.22434,-0.7304 0.18018,-1.03061 -0.18254,-1.2409 0.75912,-2.11918 2.28237,-2.12876 0.51375,-0.003 1.03091,-0.086 1.14928,-0.18402 0.51862,-0.42933 0.75209,-0.38122 1.48119,0.30522 0.40106,0.37761 1.09021,0.93198 1.53142,1.23191 0.59381,0.40368 0.92292,0.78414 1.2669,1.46456 0.25558,0.50557 1.01442,1.64743 1.68632,2.53747 0.67189,0.89004 1.22162,1.68212 1.22162,1.76019 0,0.25217 0.78525,1.24382 1.05762,1.33562 0.31007,0.10451 1.33329,1.56006 2.45764,3.49604 0.43935,0.75652 1.05928,1.70849 1.37761,2.11548 1.44089,1.8422 5.94259,9.88318 7.29255,13.02599 2.94245,6.8503 3.8227,9.7052 4.27492,13.86484 0.27531,2.5322 0.30552,3.83787 0.102,4.40636 -0.0772,0.21573 -0.21686,1.34833 -0.31026,2.51688 -0.17687,2.21265 -0.39916,3.2583 -0.92413,4.34723 -0.21156,0.43882 -0.31079,0.96044 -0.31079,1.63378 0,1.25988 -0.3264,2.60448 -1.00729,4.14936 -0.65736,1.49154 -1.73515,3.21632 -2.08814,3.34162 -0.1433,0.0509 -0.41797,0.36331 -0.61035,0.69432 -0.1924,0.331 -1.62668,1.95007 -3.18728,3.59792 -3.09096,3.26378 -4.77153,4.61434 -6.37106,5.12001 -0.50063,0.15827 -1.66678,0.62288 -2.59146,1.03247 -1.2258,0.54298 -1.99687,0.7785 -2.84658,0.86947 -0.64094,0.0686 -1.44919,0.20592 -1.7961,0.30512 -1.14131,0.32636 -4.82834,0.82272 -6.70119,0.90213 -1.44118,0.0611 -1.92167,0.0264 -2.22192,-0.16052 z m -96.309048,-1.93422 c -0.4214,-0.10927 -1.17775,-0.39923 -1.68078,-0.64435 -0.50304,-0.24513 -1.22708,-0.51923 -1.60898,-0.60911 -0.99356,-0.23384 -2.48672,-1.22563 -4.06001,-2.69676 -2.11725,-1.97977 -2.98437,-2.69954 -4.3818,-3.63725 -1.61646,-1.08468 -1.78988,-1.24174 -2.0746398,-1.87901 -0.12678,-0.28371 -0.62349,-1.00475 -1.10382,-1.6023 -2.0177903,-2.51031 -2.3851003,-3.00199 -3.1107503,-4.1641 -1.42986,-2.28988 -2.09257,-3.93261 -2.59307,-6.42778 -0.25134,-1.25301 -0.55925,-2.60773 -0.68425,-3.01048 -0.12499,-0.40276 -0.311,-1.3181 -0.41335,-2.03411 -0.24876,-1.74029 -0.24536,-9.59887 0.005,-11.71647 0.81989,-6.93266 2.22557,-13.04649 3.97368,-17.28296 0.70694,-1.71324 2.4326,-5.02021 4.2282001,-8.10272 2.72969,-4.68605 7.40286,-10.52114 9.90345,-12.36579 0.81117,-0.59839 1.29364,-1.02938 3.73626,-3.33753 1.32864,-1.25549 2.42822,-1.97714 4.12852,-2.7095 1.5945,-0.68678 1.9983,-0.69913 2.24422,-0.0686 0.26882,0.68918 0.59943,0.93127 1.42749,1.04527 0.72537,0.0999 0.73285,0.0962 0.68956,-0.33844 -0.0663,-0.6656 0.41583,-0.67412 1.05852,-0.0187 0.75715,0.77213 1.08,1.53214 1.34921,3.17612 0.3234,1.97481 0.30722,1.94193 1.03829,2.11031 0.52372,0.12062 0.63806,0.21049 0.59774,0.4698 -0.0274,0.17636 -0.11087,0.82934 -0.18543,1.45106 -0.0746,0.62172 -0.20004,1.31738 -0.27883,1.54592 -0.0788,0.22854 -0.22279,0.82891 -0.31999,1.33416 -0.15079,0.78381 -0.30357,1.05551 -1.04096,1.85118 -0.81428,0.87864 -0.84758,0.94546 -0.57626,1.15615 0.15839,0.12299 0.47759,0.22361 0.70935,0.22361 1.00951,0 0.70644,0.80526 -0.52256,1.38846 -0.52439,0.24883 -1.28686,0.68982 -1.69439,0.97997 -1.1186,0.79642 -4.18262,4.03908 -4.80713,5.08741 -0.30297,0.50858 -0.83355,1.27134 -1.17906,1.69502 -1.69532,2.0789 -2.16702,2.7422 -2.76325,3.88565 -0.35524,0.68127 -0.92996,1.59662 -1.27717,2.03411 -0.71005,0.89469 -3.37738,5.88854 -4.85764,9.0946 -0.95759,2.07404 -2.20727,5.38317 -2.51961,6.67187 -0.17114,0.70615 -0.69877,4.3846 -0.94158,6.56433 -0.0831,0.74635 -0.16695,2.50382 -0.18627,3.90549 -0.0333,2.41543 -0.0157,2.58881 0.33675,3.32125 0.24705,0.51341 0.67463,1.01112 1.27399,1.48292 l 0.90213,0.71017 2.11868,0.11421 c 2.32039,0.12509 6.65048,0.003 8.81814,-0.24833 0.75852,-0.088 2.24997,-0.37669 3.31432,-0.64155 1.06436,-0.26484 2.10664,-0.48155 2.31619,-0.48155 0.20955,0 0.56149,-0.15076 0.78209,-0.33504 0.29227,-0.24415 0.77621,-0.37626 1.78373,-0.48694 1.11283,-0.12226 2.42156,-0.51533 6.70675,-2.01425 2.92826,-1.02427 6.42742,-2.23083 7.7759,-2.68123 1.81394,-0.60588 2.89029,-1.07884 4.13738,-1.81803 0.92708,-0.54951 2.16404,-1.2553 2.7488,-1.56842 2.6914,-1.44114 4.13009,-2.57699 6.28623,-4.96302 2.03878,-2.25615 3.04154,-3.75669 3.24995,-4.86325 0.11706,-0.62158 -0.71659,-3.16485 -1.66622,-5.08321 -0.40592,-0.82 -1.31818,-2.73579 -2.02724,-4.2573 -0.70907,-1.52151 -1.57034,-3.16406 -1.91395,-3.6501 -0.34361,-0.48605 -0.62474,-0.89984 -0.62474,-0.91953 0,-0.0197 0.17172,-0.42754 0.38159,-0.9063 0.46535,-1.06153 0.47168,-1.27171 0.064,-2.12042 -0.23938,-0.49831 -0.29757,-0.83682 -0.22965,-1.33603 0.0553,-0.40662 -2.6e-4,-0.9858 -0.1421,-1.4781 -0.24882,-0.86416 -0.33683,-3.45642 -0.12457,-3.66907 0.0701,-0.0702 0.2653,-0.15532 0.43386,-0.18918 0.32355,-0.065 0.36873,-0.36068 0.17683,-1.15734 -0.0905,-0.37551 -0.0272,-0.54254 0.36191,-0.95576 0.40037,-0.42518 0.55236,-0.48679 1.00737,-0.40838 0.66995,0.11545 2.69287,1.37276 3.74907,2.33017 0.43876,0.39772 0.98985,0.82862 1.22465,0.95756 0.26162,0.14367 0.49781,0.46262 0.61007,0.82383 0.15134,0.48697 0.32403,0.65555 0.99362,0.97002 1.11025,0.52142 1.82579,1.23198 2.42872,2.41179 0.28041,0.54872 1.24819,2.44354 2.15061,4.2107 0.90242,1.76716 1.74835,3.59786 1.87984,4.06821 0.13148,0.47036 0.44443,1.28732 0.69543,1.81547 0.25101,0.52814 0.78762,1.9927 1.19247,3.25457 0.40486,1.26187 0.91075,2.80691 1.12421,3.43341 1.0735,3.1508 1.33187,6.35061 1.13232,14.02362 -0.10243,3.93886 -0.0367,3.70026 -1.64686,5.9822 -1.19179,1.68906 -1.83325,2.89799 -1.83325,3.45501 0,0.44967 -0.92281,1.4413 -2.98811,3.21096 -1.61134,1.38068 -2.46763,1.9421 -4.1075,2.69303 -0.99635,0.45623 -1.33843,0.71991 -2.04903,1.57943 -0.69838,0.84474 -1.21767,1.25017 -2.86474,2.2366 -1.10646,0.66265 -2.391,1.32901 -2.85454,1.48076 -0.46354,0.15176 -1.46341,0.48648 -2.22192,0.74383 -1.53093,0.51938 -3.49742,1.02371 -4.98131,1.27748 -0.53622,0.0917 -1.32423,0.35111 -1.75112,0.57646 -0.42688,0.22535 -1.70707,0.82213 -2.84484,1.32616 -1.13778,0.50405 -2.62035,1.2108 -3.29459,1.57055 -1.35734,0.72424 -3.12116,1.37539 -5.66974,2.0931 -0.92708,0.26109 -1.98327,0.55968 -2.3471,0.66353 -0.50563,0.14435 -0.92084,0.14277 -1.76221,-0.007 -0.99826,-0.17735 -1.18311,-0.16472 -1.98577,0.13572 -0.80698,0.30205 -1.03001,0.31668 -2.5284,0.16578 -0.90384,-0.091 -2.4491,-0.16555 -3.4339,-0.16562 -0.98481,-8e-5 -1.95976,-0.0685 -2.16656,-0.15196 -0.30831,-0.12449 -0.43908,-0.0805 -0.72626,0.2441 -0.39024,0.44112 -0.50507,0.4533 -1.59932,0.16955 z m 5.44799,-81.21937 c -0.012,-0.24153 -0.35484,-0.19716 -0.43437,0.0562 -0.043,0.13687 0.0271,0.19787 0.18686,0.16272 0.14058,-0.0309 0.25196,-0.12945 0.24751,-0.21895 z m 30.01355,14.77742 c -0.29971,-0.82894 0.074,-2.0929 0.5602,-1.89477 0.25711,0.10478 0.27998,0.70826 0.0589,1.55365 -0.20695,0.79132 -0.41488,0.9059 -0.61908,0.34112 z m -3.32649,-6.71981 c -0.27737,-0.0698 -0.62215,-0.23966 -0.76619,-0.37749 -0.43379,-0.41511 -1.06285,-0.50523 -1.4835,-0.21254 -0.51035,0.35511 -0.54543,0.34664 -1.38576,-0.33475 -0.40479,-0.32823 -1.01808,-0.75461 -1.36285,-0.94751 -0.84385,-0.47214 -1.59798,-1.56943 -2.6852,-3.90712 -1.0955,-2.35548 -1.87579,-5.19142 -2.8552,-10.37719 -0.37577,-1.98961 -0.81913,-4.27653 -0.98525,-5.08203 -0.40961,-1.98627 -0.40301,-2.48507 0.0338,-2.55166 0.46068,-0.0702 0.86547,-1.22073 0.87713,-2.49293 0.0115,-1.25765 0.40693,-3.88836 0.70592,-4.69666 0.12785,-0.34565 0.46913,-1.84682 0.7584,-3.33594 0.56391,-2.90297 1.00749,-4.45586 1.67981,-5.8807 0.69674,-1.47662 1.09961,-1.95192 1.66002,-1.95852 0.65142,-0.008 1.03075,-0.2533 1.76842,-1.14515 0.33851,-0.40926 1.53923,-1.41154 2.66828,-2.22728 1.12905,-0.81574 2.14645,-1.60297 2.26088,-1.7494 0.11444,-0.14643 0.48851,-0.4156 0.83126,-0.59816 0.34276,-0.18256 0.76111,-0.45943 0.92967,-0.61526 0.16856,-0.15584 0.91042,-0.47966 1.64856,-0.7196 0.73815,-0.23994 2.25519,-0.82641 3.3712,-1.30327 2.29736,-0.98164 4.77264,-1.79102 6.24311,-2.04141 0.54782,-0.0933 2.23734,-0.17016 3.7545,-0.17084 2.25236,-0.001 3.33896,0.0875 5.92223,0.48262 1.74006,0.26611 3.6258,0.64491 4.19053,0.84178 1.04262,0.36347 5.96812,2.91131 8.36328,4.32611 2.18356,1.28982 3.94436,2.61744 6.09139,4.59286 1.123063,1.03328 2.502188,2.25294 3.064738,2.71034 0.56255,0.45741 1.4804,1.38604 2.03965,2.06364 0.55924,0.67759 1.35673,1.54823 1.77217,1.93474 0.41545,0.38651 0.99222,1.02993 1.28173,1.42982 0.53617,0.74062 4.75444,5.77297 7.60086,9.06776 0.86533,1.00162 1.71436,2.13979 1.88675,2.52926 0.17239,0.38946 0.76723,1.31754 1.32184,2.06239 1.03159,1.38541 1.44313,2.32766 1.82095,4.16923 0.1107,0.53955 0.47993,1.67459 0.82051,2.52229 0.60726,1.51142 0.61658,1.56375 0.48145,2.70054 -0.1983,1.66815 -0.80759,2.92524 -1.69913,3.50561 l -0.70529,0.45912 -1.05693,-0.40032 c -0.58133,-0.22017 -1.5557,-0.55198 -2.16528,-0.73735 -0.92276,-0.2806 -1.18895,-0.44358 -1.58992,-0.97345 -0.26734,-0.35327 -0.67095,-0.68058 -0.90715,-0.73568 -0.28401,-0.0662 -0.49012,-0.26479 -0.61966,-0.59692 -0.10677,-0.27371 -0.62316,-0.85572 -1.14754,-1.29334 -0.93302,-0.77865 -2.15259,-2.24965 -3.09578,-3.73399 -0.83396,-1.31247 -4.54477,-5.58683 -8.247195,-9.49966 -2.337643,-2.4705 -3.838093,-3.75463 -5.535143,-4.73716 -0.57266,-0.33155 -1.62733,-0.98665 -2.34372,-1.45579 -1.36024,-0.89078 -2.32006,-1.28269 -3.58832,-1.46518 -0.41439,-0.0596 -0.89709,-0.20371 -1.07265,-0.32019 -0.17557,-0.11648 -0.57524,-0.25943 -0.88817,-0.31766 -0.31293,-0.0582 -0.96801,-0.30043 -1.45574,-0.53822 -0.77664,-0.37865 -1.08664,-0.43317 -2.49577,-0.43897 -1.44658,-0.006 -1.70952,0.0406 -2.60502,0.46117 -0.54782,0.25729 -1.67929,0.71312 -2.51439,1.01295 -0.83509,0.29985 -1.67623,0.65502 -1.86919,0.78929 -0.19297,0.13427 -0.7854,0.42281 -1.31652,0.64121 -1.6984,0.69839 -5.42776,2.48498 -6.43152,3.08109 -0.53436,0.31735 -1.27954,0.62929 -1.65594,0.69321 -0.45499,0.0773 -0.85071,0.28458 -1.18061,0.61853 -0.27293,0.27628 -0.64119,0.64878 -0.81837,0.82778 -0.47991,0.48486 -1.33687,1.72283 -1.57704,2.2782 -0.11611,0.2685 -0.32523,0.58869 -0.4647,0.71152 -0.13948,0.12284 -0.25359,0.29133 -0.25359,0.37444 0,0.26876 -1.25379,3.29434 -1.54796,3.73546 -0.73545,1.10283 -1.81184,4.87128 -1.81993,6.37154 -0.002,0.33858 0.30699,2.0427 0.68625,3.78693 0.37926,1.74424 0.68956,3.40834 0.68956,3.69801 0,0.28967 0.17593,0.87763 0.39096,1.30658 0.43315,0.86407 0.39291,1.3287 -0.12828,1.48138 -0.39176,0.11476 -0.95265,0.98406 -1.10254,1.70876 -0.19773,0.95605 -0.96288,1.30259 -2.19283,0.99313 z"
       id="path3781"
       inkscape:connector-curvature="0" />
  </g>
</svg>
