<?xml version="1.0" encoding="UTF-8" standalone="no"?>
<svg
   xmlns:dc="http://purl.org/dc/elements/1.1/"
   xmlns:cc="http://creativecommons.org/ns#"
   xmlns:rdf="http://www.w3.org/1999/02/22-rdf-syntax-ns#"
   xmlns:svg="http://www.w3.org/2000/svg"
   xmlns="http://www.w3.org/2000/svg"
   xmlns:sodipodi="http://sodipodi.sourceforge.net/DTD/sodipodi-0.dtd"
   xmlns:inkscape="http://www.inkscape.org/namespaces/inkscape"
   id="svg3798"
   version="1.1"
   viewBox="0 0 153 153"
   height="153mm"
   width="153mm"
   sodipodi:docname="logo.svg"
   inkscape:version="0.92.3 (2405546, 2018-03-11)">
  <sodipodi:namedview
     pagecolor="#ffffff"
     bordercolor="#666666"
     borderopacity="1"
     objecttolerance="10"
     gridtolerance="10"
     guidetolerance="10"
     inkscape:pageopacity="0"
     inkscape:pageshadow="2"
     inkscape:window-width="1366"
     inkscape:window-height="703"
     id="namedview16"
     showgrid="false"
     inkscape:zoom="0.62974291"
     inkscape:cx="17.042052"
     inkscape:cy="294.4865"
     inkscape:window-x="0"
     inkscape:window-y="0"
     inkscape:window-maximized="1"
     inkscape:current-layer="svg3798" />
  <defs
     id="defs3792" />
  <metadata
     id="metadata3795">
    <rdf:RDF>
      <cc:Work
         rdf:about="">
        <dc:format>image/svg+xml</dc:format>
        <dc:type
           rdf:resource="http://purl.org/dc/dcmitype/StillImage" />
        <dc:title />
      </cc:Work>
    </rdf:RDF>
  </metadata>
  <g
     transform="translate(0,-144)"
     id="layer1">
    <path
       id="path3781"
       d="m 113.04015,274.03556 c -6.79081,-1.35397 -13.524961,-3.75586 -18.554648,-9.34131 -4.489608,-4.92541 -9.395861,-10.51904 -8.189876,-17.8089 -0.276764,-3.09418 1.593602,-4.48387 0.410629,-6.7444 7.001151,-0.6558 8.564656,6.79366 13.29102,10.63855 5.755665,4.91432 10.850695,5.54032 17.908845,6.45985 6.72675,-0.12684 11.02374,-2.71659 15.383,-7.11502 3.61516,-4.01551 4.91115,-10.19028 2.2366,-15.04066 -2.89785,-8.2987 -10.61895,-14.51122 -12.63312,-22.96772 -1.44926,-4.94984 3.09528,-10.76575 7.45862,-5.24939 6.28575,9.11879 13.12291,18.06788 17.08152,28.57369 3.39224,7.29221 4.06611,14.02084 2.22018,22.55953 -1.93842,5.93086 -3.08446,9.07422 -12.92762,14.30847 -7.55619,3.14023 -15.92194,3.27516 -23.68515,1.72731 z M 5.8584063,263.10542 c -7.4581364,-8.5767 -6.18157632,-21.44206 -4.5985505,-31.99711 3.8897372,-12.88121 9.1148182,-19.09343 18.2246702,-30.62132 3.344922,-3.30743 8.228658,-7.6415 12.22605,-5.4088 3.303531,1.68628 5.478296,9.26107 1.64229,13.076 l -6.888307,8.5588 c -6.880165,9.25149 -11.882631,16.20964 -11.864998,28.0938 -0.454415,5.91575 1.909348,10.85575 7.811889,10.52346 10.223419,-0.35221 19.734972,-4.50562 29.312035,-7.7649 5.625392,-2.77606 11.358694,-4.48773 13.720956,-10.25297 -3.680659,-10.33641 -7.04807,-14.54767 -7.697202,-20.12542 0,0 0.799947,-6.54859 7.563507,-5.35572 5.529222,3.87233 7.335466,7.4126 10.521485,16.18958 2.415655,8.93193 3.534986,12.2272 3.492714,21.29133 -1.159395,9.25152 -9.559756,12.91342 -16.281822,15.96492 -6.890712,3.12806 -13.429543,5.51434 -20.472359,7.13336 -6.147034,1.41309 -12.401996,2.71434 -18.793549,2.20189 -6.011389,-0.15718 -13.9584296,-6.54162 -17.9188087,-11.5069 z m 49.3622897,-59.607 c -6.521173,-0.12325 -9.713481,-7.74297 -10.673566,-13.47512 -1.085136,-6.2232 -0.842931,-11.43934 0.766464,-17.50476 1.717328,-6.06099 4.032727,-10.61018 9.348419,-15.14448 4.825998,-3.72845 9.96104,-5.62552 16.025673,-6.16704 8.36418,0.4877 12.749424,0.63721 20.989568,5.56324 7.644501,5.24135 10.335146,7.26142 17.415246,15.74821 5.7032,8.17954 13.44296,20.787 7.68104,23.51333 -7.27792,-1.65288 -10.07637,-9.38182 -15.07621,-14.15862 -4.500355,-5.25849 -12.653978,-12.27011 -19.649405,-13.75437 -9.441011,-1.82442 -15.806727,0.18823 -21.499488,6.22691 -3.742028,4.95881 -4.104453,12.43579 -3.252081,18.6849 0.580446,3.62056 3.545047,10.06853 -2.075662,10.4678 z"
       style="fill:#000000;stroke-width:0.1579112"
       inkscape:connector-curvature="0"
       sodipodi:nodetypes="accccccccccccaccccccccccccccsacccccccccccccccc" />
    <path
       transform="matrix(0.26458333,0,0,0.26458333,0,144)"
       id="path16"
       d="m 108.83058,211.78103 c -0.3415,-0.16837 -1.00644,-0.86476 -1.00644,-1.05406 0,-0.18232 0.28334,-0.31837 0.5436,-0.26101 0.11843,0.0261 0.46645,0.13191 0.77337,0.23514 l 0.55803,0.18769 v 0.37143 c 0,0.24645 -0.0549,0.42116 -0.16328,0.5192 -0.20194,0.18276 -0.33724,0.18307 -0.70528,0.002 z"
       style="opacity:0;fill:#000000;fill-rule:nonzero;stroke-width:0.08928572" />
  </g>
</svg>
